# xmcd
#
# Track frame offsets: 
#        150
#        4927
#        19410
#        27345
#        41272
#        47287
#        62527
#        65922
#        76955
#        78277
#        97430
#        117782
#        121254
#        133565
#        140395
#        150382
#        165667
#        173512
#        193562
#        214442
#        218497
#        234212
#        249395
#        263820
#        269642
#        289937
#        295702
#
# Disc length: 3999 seconds
#
# Revision: 0
# Processed by: cddbd v1.5.2PL0 Copyright (c) Steve Scherf et al.
# Submitted via: ExactAudioCopy v0.95b4
#
DISCID=790f9d1b
DTITLE=Sherwin and Pam Linton - Driftwood On The River: A Tribute To Jim
DTITLE=my Driftwood And The Music Of The Ozarks
DYEAR=1996
DGENRE=Country
TTITLE0=Arkansas Traveler [instrumental]
TTITLE1=Driftwood On The River
TTITLE2=Dialogue
TTITLE3=The Battle Of New Orleans
TTITLE4=Dialogue
TTITLE5=Tennessee Stud
TTITLE6=Dialogue
TTITLE7=The Baby 'O
TTITLE8=Dialogue
TTITLE9=Wilderness Road
TTITLE10=River Of No Return
TTITLE11=Dialogue
TTITLE12=One More Ride
TTITLE13=Dialogue
TTITLE14=Jimmy Sings
TTITLE15=Jimmy Please Play That Ol' Pickin Bow
TTITLE16=Dialogue
TTITLE17=He Had A Long Chain On
TTITLE18=Silver and Gold
TTITLE19=Dialogue
TTITLE20=Reverend Mr. Black
TTITLE21=Supper Time
TTITLE22=Falling Leaves
TTITLE23=Dialogue
TTITLE24=My Church
TTITLE25=Along The Road Of Time
TTITLE26=Home Sweet Home [instrumental]
EXTD=
EXTT0=
EXTT1=
EXTT2=
EXTT3=
EXTT4=
EXTT5=
EXTT6=
EXTT7=
EXTT8=
EXTT9=
EXTT10=
EXTT11=
EXTT12=
EXTT13=
EXTT14=
EXTT15=
EXTT16=
EXTT17=
EXTT18=
EXTT19=
EXTT20=
EXTT21=
EXTT22=
EXTT23=
EXTT24=
EXTT25=
EXTT26=
PLAYORDER=
